<mxfile host="app.diagrams.net" modified="2022-03-08T02:56:26.664Z" agent="5.0 (Macintosh; Intel Mac OS X 10_15_7) AppleWebKit/537.36 (KHTML, like Gecko) Chrome/98.0.4758.109 Safari/537.36" etag="0aSJAZIvya_t843U7ioT" version="16.6.6" type="github">
  <diagram id="4GKT5wXvFJVXnJvwkD-_" name="Page-1">
    <mxGraphModel dx="2852" dy="1478" grid="1" gridSize="10" guides="1" tooltips="1" connect="1" arrows="1" fold="1" page="1" pageScale="1" pageWidth="1200" pageHeight="1920" math="0" shadow="0">
      <root>
        <mxCell id="0" />
        <mxCell id="1" parent="0" />
        <mxCell id="7yKphRrbdlnL00dbz6-8-86" style="edgeStyle=orthogonalEdgeStyle;rounded=0;orthogonalLoop=1;jettySize=auto;html=1;entryX=0.21;entryY=1;entryDx=0;entryDy=0;entryPerimeter=0;" parent="1" source="7yKphRrbdlnL00dbz6-8-1" target="7yKphRrbdlnL00dbz6-8-85" edge="1">
          <mxGeometry relative="1" as="geometry" />
        </mxCell>
        <mxCell id="7yKphRrbdlnL00dbz6-8-1" value="" style="rounded=0;whiteSpace=wrap;html=1;" parent="1" vertex="1">
          <mxGeometry x="440" y="480" width="450" height="590" as="geometry" />
        </mxCell>
        <mxCell id="7yKphRrbdlnL00dbz6-8-87" style="edgeStyle=orthogonalEdgeStyle;rounded=0;orthogonalLoop=1;jettySize=auto;html=1;entryX=0.776;entryY=1.05;entryDx=0;entryDy=0;entryPerimeter=0;" parent="1" source="7yKphRrbdlnL00dbz6-8-3" target="7yKphRrbdlnL00dbz6-8-85" edge="1">
          <mxGeometry relative="1" as="geometry" />
        </mxCell>
        <mxCell id="7yKphRrbdlnL00dbz6-8-88" value="ReadOnly" style="edgeLabel;html=1;align=center;verticalAlign=middle;resizable=0;points=[];" parent="7yKphRrbdlnL00dbz6-8-87" vertex="1" connectable="0">
          <mxGeometry x="0.1987" y="-1" relative="1" as="geometry">
            <mxPoint y="1" as="offset" />
          </mxGeometry>
        </mxCell>
        <mxCell id="7yKphRrbdlnL00dbz6-8-3" value="" style="rounded=0;whiteSpace=wrap;html=1;" parent="1" vertex="1">
          <mxGeometry x="1030" y="480" width="480" height="405" as="geometry" />
        </mxCell>
        <mxCell id="7yKphRrbdlnL00dbz6-8-4" value="Miner" style="text;html=1;align=center;verticalAlign=middle;resizable=0;points=[];autosize=1;strokeColor=none;fillColor=none;strokeWidth=1;" parent="1" vertex="1">
          <mxGeometry x="1260" y="490" width="50" height="20" as="geometry" />
        </mxCell>
        <mxCell id="7yKphRrbdlnL00dbz6-8-10" style="edgeStyle=orthogonalEdgeStyle;rounded=0;orthogonalLoop=1;jettySize=auto;html=1;" parent="1" source="7yKphRrbdlnL00dbz6-8-6" target="7yKphRrbdlnL00dbz6-8-9" edge="1">
          <mxGeometry relative="1" as="geometry">
            <Array as="points">
              <mxPoint x="1150" y="930" />
              <mxPoint x="1150" y="930" />
            </Array>
          </mxGeometry>
        </mxCell>
        <mxCell id="7yKphRrbdlnL00dbz6-8-32" style="edgeStyle=orthogonalEdgeStyle;rounded=0;orthogonalLoop=1;jettySize=auto;html=1;entryX=1;entryY=0.5;entryDx=0;entryDy=0;" parent="1" source="7yKphRrbdlnL00dbz6-8-6" target="7yKphRrbdlnL00dbz6-8-36" edge="1">
          <mxGeometry relative="1" as="geometry" />
        </mxCell>
        <mxCell id="7yKphRrbdlnL00dbz6-8-45" value="event_rx" style="edgeLabel;html=1;align=center;verticalAlign=middle;resizable=0;points=[];" parent="7yKphRrbdlnL00dbz6-8-32" vertex="1" connectable="0">
          <mxGeometry x="-0.0757" y="-3" relative="1" as="geometry">
            <mxPoint x="-169" y="3" as="offset" />
          </mxGeometry>
        </mxCell>
        <mxCell id="7yKphRrbdlnL00dbz6-8-6" value="miner" style="rounded=0;whiteSpace=wrap;html=1;strokeWidth=1;" parent="1" vertex="1">
          <mxGeometry x="1080" y="680" width="120" height="60" as="geometry" />
        </mxCell>
        <mxCell id="7yKphRrbdlnL00dbz6-8-29" style="edgeStyle=orthogonalEdgeStyle;rounded=0;orthogonalLoop=1;jettySize=auto;html=1;entryX=1;entryY=0.5;entryDx=0;entryDy=0;" parent="1" source="7yKphRrbdlnL00dbz6-8-7" target="7yKphRrbdlnL00dbz6-8-6" edge="1">
          <mxGeometry relative="1" as="geometry">
            <Array as="points">
              <mxPoint x="1410" y="710" />
            </Array>
          </mxGeometry>
        </mxCell>
        <mxCell id="7yKphRrbdlnL00dbz6-8-7" value="coinbase_gen" style="rounded=0;whiteSpace=wrap;html=1;strokeWidth=1;" parent="1" vertex="1">
          <mxGeometry x="1350" y="590" width="120" height="60" as="geometry" />
        </mxCell>
        <mxCell id="7yKphRrbdlnL00dbz6-8-26" style="edgeStyle=orthogonalEdgeStyle;rounded=0;orthogonalLoop=1;jettySize=auto;html=1;entryX=1;entryY=0.5;entryDx=0;entryDy=0;" parent="1" source="7yKphRrbdlnL00dbz6-8-8" target="7yKphRrbdlnL00dbz6-8-6" edge="1">
          <mxGeometry relative="1" as="geometry">
            <Array as="points">
              <mxPoint x="1410" y="710" />
            </Array>
          </mxGeometry>
        </mxCell>
        <mxCell id="7yKphRrbdlnL00dbz6-8-8" value="collector" style="rounded=0;whiteSpace=wrap;html=1;strokeWidth=1;" parent="1" vertex="1">
          <mxGeometry x="1350" y="770" width="120" height="60" as="geometry" />
        </mxCell>
        <mxCell id="7yKphRrbdlnL00dbz6-8-16" style="edgeStyle=orthogonalEdgeStyle;rounded=0;orthogonalLoop=1;jettySize=auto;html=1;entryX=0.5;entryY=0;entryDx=0;entryDy=0;" parent="1" source="7yKphRrbdlnL00dbz6-8-9" target="7yKphRrbdlnL00dbz6-8-11" edge="1">
          <mxGeometry relative="1" as="geometry" />
        </mxCell>
        <mxCell id="7yKphRrbdlnL00dbz6-8-9" value="Redis" style="rounded=1;whiteSpace=wrap;html=1;strokeWidth=1;" parent="1" vertex="1">
          <mxGeometry x="1080" y="930" width="120" height="50" as="geometry" />
        </mxCell>
        <mxCell id="7yKphRrbdlnL00dbz6-8-11" value="worker2" style="rounded=0;whiteSpace=wrap;html=1;strokeWidth=1;" parent="1" vertex="1">
          <mxGeometry x="1080" y="1130" width="120" height="60" as="geometry" />
        </mxCell>
        <mxCell id="7yKphRrbdlnL00dbz6-8-12" value="worker1" style="rounded=0;whiteSpace=wrap;html=1;strokeWidth=1;" parent="1" vertex="1">
          <mxGeometry x="910" y="1130" width="120" height="60" as="geometry" />
        </mxCell>
        <mxCell id="7yKphRrbdlnL00dbz6-8-19" style="edgeStyle=orthogonalEdgeStyle;rounded=0;orthogonalLoop=1;jettySize=auto;html=1;entryX=0.5;entryY=1;entryDx=0;entryDy=0;" parent="1" source="7yKphRrbdlnL00dbz6-8-13" target="7yKphRrbdlnL00dbz6-8-8" edge="1">
          <mxGeometry relative="1" as="geometry">
            <Array as="points">
              <mxPoint x="1410" y="1160" />
            </Array>
          </mxGeometry>
        </mxCell>
        <mxCell id="7yKphRrbdlnL00dbz6-8-13" value="worker3" style="rounded=0;whiteSpace=wrap;html=1;strokeWidth=1;" parent="1" vertex="1">
          <mxGeometry x="1245" y="1130" width="120" height="60" as="geometry" />
        </mxCell>
        <mxCell id="7yKphRrbdlnL00dbz6-8-15" value="" style="endArrow=classic;html=1;rounded=0;exitX=0.5;exitY=1;exitDx=0;exitDy=0;entryX=0.5;entryY=0;entryDx=0;entryDy=0;" parent="1" source="7yKphRrbdlnL00dbz6-8-9" target="7yKphRrbdlnL00dbz6-8-12" edge="1">
          <mxGeometry width="50" height="50" relative="1" as="geometry">
            <mxPoint x="900" y="1040" as="sourcePoint" />
            <mxPoint x="950" y="990" as="targetPoint" />
          </mxGeometry>
        </mxCell>
        <mxCell id="7yKphRrbdlnL00dbz6-8-17" value="" style="endArrow=classic;html=1;rounded=0;exitX=0.5;exitY=1;exitDx=0;exitDy=0;entryX=0.5;entryY=0;entryDx=0;entryDy=0;" parent="1" source="7yKphRrbdlnL00dbz6-8-9" target="7yKphRrbdlnL00dbz6-8-13" edge="1">
          <mxGeometry width="50" height="50" relative="1" as="geometry">
            <mxPoint x="1150" y="990" as="sourcePoint" />
            <mxPoint x="980" y="1140" as="targetPoint" />
          </mxGeometry>
        </mxCell>
        <mxCell id="7yKphRrbdlnL00dbz6-8-20" value="HTTP/POST" style="text;html=1;align=center;verticalAlign=middle;resizable=0;points=[];autosize=1;strokeColor=none;fillColor=none;" parent="1" vertex="1">
          <mxGeometry x="1410" y="990" width="80" height="20" as="geometry" />
        </mxCell>
        <mxCell id="7yKphRrbdlnL00dbz6-8-28" value="mined_tx" style="text;html=1;strokeColor=none;fillColor=none;align=center;verticalAlign=middle;whiteSpace=wrap;rounded=0;" parent="1" vertex="1">
          <mxGeometry x="1410" y="730" width="60" height="30" as="geometry" />
        </mxCell>
        <mxCell id="7yKphRrbdlnL00dbz6-8-30" value="gen_tx" style="text;html=1;strokeColor=none;fillColor=none;align=center;verticalAlign=middle;whiteSpace=wrap;rounded=0;" parent="1" vertex="1">
          <mxGeometry x="1410" y="650" width="60" height="30" as="geometry" />
        </mxCell>
        <mxCell id="7yKphRrbdlnL00dbz6-8-34" value="Node" style="text;html=1;align=center;verticalAlign=middle;resizable=0;points=[];autosize=1;strokeColor=none;fillColor=none;" parent="1" vertex="1">
          <mxGeometry x="640" y="490" width="40" height="20" as="geometry" />
        </mxCell>
        <mxCell id="7yKphRrbdlnL00dbz6-8-35" value="Peers" style="rounded=1;whiteSpace=wrap;html=1;strokeWidth=1;" parent="1" vertex="1">
          <mxGeometry x="460" y="800" width="380" height="110" as="geometry" />
        </mxCell>
        <mxCell id="7yKphRrbdlnL00dbz6-8-56" value="PeersEvent" style="edgeStyle=orthogonalEdgeStyle;rounded=0;orthogonalLoop=1;jettySize=auto;html=1;" parent="1" source="7yKphRrbdlnL00dbz6-8-36" target="7yKphRrbdlnL00dbz6-8-35" edge="1">
          <mxGeometry relative="1" as="geometry" />
        </mxCell>
        <mxCell id="7yKphRrbdlnL00dbz6-8-57" style="edgeStyle=orthogonalEdgeStyle;rounded=0;orthogonalLoop=1;jettySize=auto;html=1;" parent="1" source="7yKphRrbdlnL00dbz6-8-36" target="7yKphRrbdlnL00dbz6-8-41" edge="1">
          <mxGeometry relative="1" as="geometry" />
        </mxCell>
        <mxCell id="7yKphRrbdlnL00dbz6-8-58" value="LedgerEvent" style="edgeLabel;html=1;align=center;verticalAlign=middle;resizable=0;points=[];" parent="7yKphRrbdlnL00dbz6-8-57" vertex="1" connectable="0">
          <mxGeometry x="0.12" y="-1" relative="1" as="geometry">
            <mxPoint as="offset" />
          </mxGeometry>
        </mxCell>
        <mxCell id="7yKphRrbdlnL00dbz6-8-36" value="EventHandler" style="rounded=1;whiteSpace=wrap;html=1;strokeWidth=1;" parent="1" vertex="1">
          <mxGeometry x="590" y="680" width="120" height="60" as="geometry" />
        </mxCell>
        <mxCell id="7yKphRrbdlnL00dbz6-8-79" style="edgeStyle=orthogonalEdgeStyle;rounded=0;orthogonalLoop=1;jettySize=auto;html=1;entryX=0.5;entryY=0;entryDx=0;entryDy=0;" parent="1" source="7yKphRrbdlnL00dbz6-8-37" target="7yKphRrbdlnL00dbz6-8-76" edge="1">
          <mxGeometry relative="1" as="geometry" />
        </mxCell>
        <mxCell id="7yKphRrbdlnL00dbz6-8-37" value="Peer1" style="rounded=0;whiteSpace=wrap;html=1;strokeWidth=1;" parent="1" vertex="1">
          <mxGeometry x="460" y="970" width="120" height="60" as="geometry" />
        </mxCell>
        <mxCell id="7yKphRrbdlnL00dbz6-8-38" value="Peer2" style="rounded=0;whiteSpace=wrap;html=1;strokeWidth=1;" parent="1" vertex="1">
          <mxGeometry x="590" y="970" width="120" height="60" as="geometry" />
        </mxCell>
        <mxCell id="7yKphRrbdlnL00dbz6-8-78" style="edgeStyle=orthogonalEdgeStyle;rounded=0;orthogonalLoop=1;jettySize=auto;html=1;entryX=0.5;entryY=0;entryDx=0;entryDy=0;" parent="1" source="7yKphRrbdlnL00dbz6-8-39" target="7yKphRrbdlnL00dbz6-8-77" edge="1">
          <mxGeometry relative="1" as="geometry" />
        </mxCell>
        <mxCell id="7yKphRrbdlnL00dbz6-8-39" value="Peer3" style="rounded=0;whiteSpace=wrap;html=1;strokeWidth=1;" parent="1" vertex="1">
          <mxGeometry x="720" y="970" width="120" height="60" as="geometry" />
        </mxCell>
        <mxCell id="7yKphRrbdlnL00dbz6-8-59" style="edgeStyle=orthogonalEdgeStyle;rounded=0;orthogonalLoop=1;jettySize=auto;html=1;exitX=0.5;exitY=0;exitDx=0;exitDy=0;" parent="1" source="7yKphRrbdlnL00dbz6-8-41" target="7yKphRrbdlnL00dbz6-8-6" edge="1">
          <mxGeometry relative="1" as="geometry" />
        </mxCell>
        <mxCell id="7yKphRrbdlnL00dbz6-8-60" value="headchange_tx" style="edgeLabel;html=1;align=center;verticalAlign=middle;resizable=0;points=[];" parent="7yKphRrbdlnL00dbz6-8-59" vertex="1" connectable="0">
          <mxGeometry x="-0.2024" y="3" relative="1" as="geometry">
            <mxPoint x="29" as="offset" />
          </mxGeometry>
        </mxCell>
        <mxCell id="7yKphRrbdlnL00dbz6-8-41" value="Ledger" style="rounded=1;whiteSpace=wrap;html=1;strokeWidth=1;" parent="1" vertex="1">
          <mxGeometry x="580" y="560" width="140" height="70" as="geometry" />
        </mxCell>
        <mxCell id="7yKphRrbdlnL00dbz6-8-48" value="" style="endArrow=none;html=1;rounded=0;exitX=1;exitY=0.5;exitDx=0;exitDy=0;" parent="1" source="7yKphRrbdlnL00dbz6-8-39" edge="1">
          <mxGeometry width="50" height="50" relative="1" as="geometry">
            <mxPoint x="930" y="950" as="sourcePoint" />
            <mxPoint x="870" y="710" as="targetPoint" />
            <Array as="points">
              <mxPoint x="870" y="1000" />
              <mxPoint x="870" y="860" />
            </Array>
          </mxGeometry>
        </mxCell>
        <mxCell id="7yKphRrbdlnL00dbz6-8-80" value="event_tx" style="edgeLabel;html=1;align=center;verticalAlign=middle;resizable=0;points=[];" parent="7yKphRrbdlnL00dbz6-8-48" vertex="1" connectable="0">
          <mxGeometry x="0.1375" y="-1" relative="1" as="geometry">
            <mxPoint as="offset" />
          </mxGeometry>
        </mxCell>
        <mxCell id="7yKphRrbdlnL00dbz6-8-49" value="NetworkNode2" style="ellipse;whiteSpace=wrap;html=1;aspect=fixed;strokeWidth=1;" parent="1" vertex="1">
          <mxGeometry x="610" y="1130" width="80" height="80" as="geometry" />
        </mxCell>
        <mxCell id="7yKphRrbdlnL00dbz6-8-50" value="" style="endArrow=classic;startArrow=classic;html=1;rounded=0;entryX=0.5;entryY=1;entryDx=0;entryDy=0;exitX=0.5;exitY=0;exitDx=0;exitDy=0;" parent="1" source="7yKphRrbdlnL00dbz6-8-49" target="7yKphRrbdlnL00dbz6-8-38" edge="1">
          <mxGeometry width="50" height="50" relative="1" as="geometry">
            <mxPoint x="660" y="1160" as="sourcePoint" />
            <mxPoint x="710" y="1110" as="targetPoint" />
          </mxGeometry>
        </mxCell>
        <mxCell id="7yKphRrbdlnL00dbz6-8-51" value="TCPStream/Message" style="edgeLabel;html=1;align=center;verticalAlign=middle;resizable=0;points=[];" parent="7yKphRrbdlnL00dbz6-8-50" vertex="1" connectable="0">
          <mxGeometry x="0.1692" y="-2" relative="1" as="geometry">
            <mxPoint x="-2" y="16" as="offset" />
          </mxGeometry>
        </mxCell>
        <mxCell id="7yKphRrbdlnL00dbz6-8-69" value="" style="edgeStyle=orthogonalEdgeStyle;rounded=0;orthogonalLoop=1;jettySize=auto;html=1;" parent="1" source="7yKphRrbdlnL00dbz6-8-64" target="7yKphRrbdlnL00dbz6-8-37" edge="1">
          <mxGeometry relative="1" as="geometry" />
        </mxCell>
        <mxCell id="7yKphRrbdlnL00dbz6-8-64" value="PeerState" style="rounded=0;whiteSpace=wrap;html=1;strokeWidth=1;" parent="1" vertex="1">
          <mxGeometry x="470" y="860" width="100" height="40" as="geometry" />
        </mxCell>
        <mxCell id="7yKphRrbdlnL00dbz6-8-70" value="" style="edgeStyle=orthogonalEdgeStyle;rounded=0;orthogonalLoop=1;jettySize=auto;html=1;" parent="1" source="7yKphRrbdlnL00dbz6-8-66" target="7yKphRrbdlnL00dbz6-8-38" edge="1">
          <mxGeometry relative="1" as="geometry" />
        </mxCell>
        <mxCell id="7yKphRrbdlnL00dbz6-8-73" value="outbound_tx" style="edgeLabel;html=1;align=center;verticalAlign=middle;resizable=0;points=[];" parent="7yKphRrbdlnL00dbz6-8-70" vertex="1" connectable="0">
          <mxGeometry x="-0.2333" relative="1" as="geometry">
            <mxPoint as="offset" />
          </mxGeometry>
        </mxCell>
        <mxCell id="7yKphRrbdlnL00dbz6-8-66" value="PeerState" style="rounded=0;whiteSpace=wrap;html=1;strokeWidth=1;" parent="1" vertex="1">
          <mxGeometry x="600" y="860" width="100" height="40" as="geometry" />
        </mxCell>
        <mxCell id="7yKphRrbdlnL00dbz6-8-71" value="" style="edgeStyle=orthogonalEdgeStyle;rounded=0;orthogonalLoop=1;jettySize=auto;html=1;" parent="1" source="7yKphRrbdlnL00dbz6-8-67" target="7yKphRrbdlnL00dbz6-8-39" edge="1">
          <mxGeometry relative="1" as="geometry" />
        </mxCell>
        <mxCell id="7yKphRrbdlnL00dbz6-8-67" value="PeerState" style="rounded=0;whiteSpace=wrap;html=1;strokeWidth=1;" parent="1" vertex="1">
          <mxGeometry x="730" y="860" width="100" height="40" as="geometry" />
        </mxCell>
        <mxCell id="7yKphRrbdlnL00dbz6-8-76" value="NetworkNode1" style="ellipse;whiteSpace=wrap;html=1;aspect=fixed;strokeWidth=1;" parent="1" vertex="1">
          <mxGeometry x="480" y="1130" width="80" height="80" as="geometry" />
        </mxCell>
        <mxCell id="7yKphRrbdlnL00dbz6-8-77" value="NetworkNode3" style="ellipse;whiteSpace=wrap;html=1;aspect=fixed;strokeWidth=1;" parent="1" vertex="1">
          <mxGeometry x="740" y="1130" width="80" height="80" as="geometry" />
        </mxCell>
        <mxCell id="7yKphRrbdlnL00dbz6-8-83" style="edgeStyle=orthogonalEdgeStyle;rounded=0;orthogonalLoop=1;jettySize=auto;html=1;entryX=0;entryY=0.5;entryDx=0;entryDy=0;" parent="1" source="7yKphRrbdlnL00dbz6-8-82" target="7yKphRrbdlnL00dbz6-8-36" edge="1">
          <mxGeometry relative="1" as="geometry" />
        </mxCell>
        <mxCell id="7yKphRrbdlnL00dbz6-8-84" value="event_tx" style="edgeLabel;html=1;align=center;verticalAlign=middle;resizable=0;points=[];" parent="7yKphRrbdlnL00dbz6-8-83" vertex="1" connectable="0">
          <mxGeometry x="0.051" y="4" relative="1" as="geometry">
            <mxPoint as="offset" />
          </mxGeometry>
        </mxCell>
        <mxCell id="7yKphRrbdlnL00dbz6-8-82" value="SocketListener" style="rounded=0;whiteSpace=wrap;html=1;strokeWidth=1;" parent="1" vertex="1">
          <mxGeometry x="260" y="680" width="120" height="60" as="geometry" />
        </mxCell>
        <mxCell id="7yKphRrbdlnL00dbz6-8-85" value="RocksDB" style="rounded=0;whiteSpace=wrap;html=1;strokeWidth=1;" parent="1" vertex="1">
          <mxGeometry x="440" y="330" width="1070" height="70" as="geometry" />
        </mxCell>
        <mxCell id="7yKphRrbdlnL00dbz6-8-102" value="" style="edgeStyle=orthogonalEdgeStyle;rounded=0;orthogonalLoop=1;jettySize=auto;html=1;" parent="1" source="7yKphRrbdlnL00dbz6-8-92" target="7yKphRrbdlnL00dbz6-8-97" edge="1">
          <mxGeometry relative="1" as="geometry">
            <Array as="points">
              <mxPoint x="440" y="1500" />
              <mxPoint x="440" y="1500" />
            </Array>
          </mxGeometry>
        </mxCell>
        <mxCell id="7yKphRrbdlnL00dbz6-8-111" value="&lt;span style=&quot;background-color: rgb(193 , 230 , 198)&quot;&gt;register&lt;/span&gt;" style="edgeLabel;html=1;align=center;verticalAlign=middle;resizable=0;points=[];" parent="7yKphRrbdlnL00dbz6-8-102" vertex="1" connectable="0">
          <mxGeometry x="0.2292" y="4" relative="1" as="geometry">
            <mxPoint as="offset" />
          </mxGeometry>
        </mxCell>
        <mxCell id="7yKphRrbdlnL00dbz6-8-92" value="集群1" style="ellipse;shape=cloud;whiteSpace=wrap;html=1;strokeWidth=1;" parent="1" vertex="1">
          <mxGeometry x="380" y="1670" width="120" height="80" as="geometry" />
        </mxCell>
        <mxCell id="7yKphRrbdlnL00dbz6-8-104" style="edgeStyle=orthogonalEdgeStyle;rounded=0;orthogonalLoop=1;jettySize=auto;html=1;exitX=0.4;exitY=0.1;exitDx=0;exitDy=0;exitPerimeter=0;" parent="1" source="7yKphRrbdlnL00dbz6-8-93" target="7yKphRrbdlnL00dbz6-8-97" edge="1">
          <mxGeometry relative="1" as="geometry">
            <Array as="points">
              <mxPoint x="878" y="1658" />
            </Array>
          </mxGeometry>
        </mxCell>
        <mxCell id="7yKphRrbdlnL00dbz6-8-110" value="register" style="edgeLabel;html=1;align=center;verticalAlign=middle;resizable=0;points=[];" parent="7yKphRrbdlnL00dbz6-8-104" vertex="1" connectable="0">
          <mxGeometry x="0.2432" y="4" relative="1" as="geometry">
            <mxPoint y="-1" as="offset" />
          </mxGeometry>
        </mxCell>
        <mxCell id="7yKphRrbdlnL00dbz6-8-93" value="集群2" style="ellipse;shape=cloud;whiteSpace=wrap;html=1;strokeWidth=1;" parent="1" vertex="1">
          <mxGeometry x="840" y="1650" width="120" height="80" as="geometry" />
        </mxCell>
        <mxCell id="7yKphRrbdlnL00dbz6-8-108" style="edgeStyle=orthogonalEdgeStyle;rounded=0;orthogonalLoop=1;jettySize=auto;html=1;entryX=0.5;entryY=1;entryDx=0;entryDy=0;" parent="1" source="7yKphRrbdlnL00dbz6-8-94" target="7yKphRrbdlnL00dbz6-8-97" edge="1">
          <mxGeometry relative="1" as="geometry">
            <Array as="points">
              <mxPoint x="680" y="1590" />
              <mxPoint x="680" y="1590" />
            </Array>
          </mxGeometry>
        </mxCell>
        <mxCell id="7yKphRrbdlnL00dbz6-8-109" value="&lt;span style=&quot;background-color: rgb(193 , 230 , 198)&quot;&gt;register&lt;/span&gt;" style="edgeLabel;html=1;align=center;verticalAlign=middle;resizable=0;points=[];" parent="7yKphRrbdlnL00dbz6-8-108" vertex="1" connectable="0">
          <mxGeometry x="0.09" y="-1" relative="1" as="geometry">
            <mxPoint as="offset" />
          </mxGeometry>
        </mxCell>
        <mxCell id="7yKphRrbdlnL00dbz6-8-94" value="集群3" style="ellipse;shape=cloud;whiteSpace=wrap;html=1;strokeWidth=1;" parent="1" vertex="1">
          <mxGeometry x="620" y="1640" width="120" height="80" as="geometry" />
        </mxCell>
        <mxCell id="7yKphRrbdlnL00dbz6-8-95" value="" style="endArrow=classic;startArrow=classic;html=1;rounded=0;entryX=0.07;entryY=0.4;entryDx=0;entryDy=0;entryPerimeter=0;exitX=0.88;exitY=0.25;exitDx=0;exitDy=0;exitPerimeter=0;" parent="1" source="7yKphRrbdlnL00dbz6-8-94" target="7yKphRrbdlnL00dbz6-8-93" edge="1">
          <mxGeometry width="50" height="50" relative="1" as="geometry">
            <mxPoint x="680" y="1630" as="sourcePoint" />
            <mxPoint x="730" y="1580" as="targetPoint" />
          </mxGeometry>
        </mxCell>
        <mxCell id="7yKphRrbdlnL00dbz6-8-97" value="Consul&lt;br&gt;服务注册和发现" style="rounded=0;whiteSpace=wrap;html=1;strokeWidth=1;" parent="1" vertex="1">
          <mxGeometry x="420" y="1380" width="520" height="60" as="geometry" />
        </mxCell>
        <mxCell id="7yKphRrbdlnL00dbz6-8-98" value="" style="endArrow=classic;startArrow=classic;html=1;rounded=0;entryX=0.875;entryY=0.5;entryDx=0;entryDy=0;entryPerimeter=0;exitX=0.07;exitY=0.4;exitDx=0;exitDy=0;exitPerimeter=0;" parent="1" source="7yKphRrbdlnL00dbz6-8-94" target="7yKphRrbdlnL00dbz6-8-92" edge="1">
          <mxGeometry width="50" height="50" relative="1" as="geometry">
            <mxPoint x="470" y="1730" as="sourcePoint" />
            <mxPoint x="520" y="1680" as="targetPoint" />
            <Array as="points" />
          </mxGeometry>
        </mxCell>
        <mxCell id="7yKphRrbdlnL00dbz6-8-106" value="" style="endArrow=classic;startArrow=classic;html=1;rounded=0;exitX=0.473;exitY=0.998;exitDx=0;exitDy=0;exitPerimeter=0;entryX=0.55;entryY=0.95;entryDx=0;entryDy=0;entryPerimeter=0;" parent="1" source="7yKphRrbdlnL00dbz6-8-92" target="7yKphRrbdlnL00dbz6-8-93" edge="1">
          <mxGeometry width="50" height="50" relative="1" as="geometry">
            <mxPoint x="930" y="1590" as="sourcePoint" />
            <mxPoint x="980" y="1540" as="targetPoint" />
            <Array as="points">
              <mxPoint x="660" y="1800" />
            </Array>
          </mxGeometry>
        </mxCell>
        <mxCell id="7yKphRrbdlnL00dbz6-8-112" value="1.集群配置中心consul节点，注册本身，并获取其它集群的IP信息&lt;br&gt;&lt;br&gt;2.集群间通过TCP连接通知HeadChange" style="text;html=1;strokeColor=none;fillColor=none;align=center;verticalAlign=middle;whiteSpace=wrap;rounded=0;" parent="1" vertex="1">
          <mxGeometry x="990" y="1490" width="170" height="150" as="geometry" />
        </mxCell>
        <mxCell id="Mmc6i78jXA0FL3XZI6Aj-1" value="&lt;h1&gt;集群工作模式1&lt;/h1&gt;" style="text;html=1;strokeColor=none;fillColor=none;spacing=5;spacingTop=-20;whiteSpace=wrap;overflow=hidden;rounded=0;" vertex="1" parent="1">
          <mxGeometry x="220" y="1330" width="190" height="40" as="geometry" />
        </mxCell>
        <mxCell id="Mmc6i78jXA0FL3XZI6Aj-2" value="&lt;h1&gt;集群工作模式2&lt;/h1&gt;&lt;div&gt;&lt;br&gt;&lt;/div&gt;&lt;div&gt;替换RocksDB存储层 共享数据库&lt;/div&gt;" style="text;html=1;strokeColor=none;fillColor=none;spacing=5;spacingTop=-20;whiteSpace=wrap;overflow=hidden;rounded=0;" vertex="1" parent="1">
          <mxGeometry x="1490" y="1330" width="280" height="170" as="geometry" />
        </mxCell>
      </root>
    </mxGraphModel>
  </diagram>
</mxfile>
